HIERARCHY
ROOT SpineBase
{
  OFFSET 0.000000 0.000000 0.000000
  CHANNELS 6 Xposition Yposition Zposition Zrotation Xrotation Yrotation
  JOINT SpineMid
  {
    OFFSET 0.000000 26.695868 0.000000
    CHANNELS 3 Zrotation Xrotation Yrotation
    JOINT SpineShoulder
    {
      OFFSET -0.094764 19.906715 -0.752683
      CHANNELS 3 Zrotation Xrotation Yrotation
      JOINT Neck
      {
        OFFSET -0.029733 6.642777 -0.524970
        CHANNELS 3 Zrotation Xrotation Yrotation
        JOINT Head
        {
          OFFSET 2.371459 12.080233 0.053049
          CHANNELS 3 Zrotation Xrotation Yrotation
          End Site
          {
            OFFSET 0 0 0
          }
        }
      }
      JOINT ShoulderLeft
      {
        OFFSET -11.607393 -2.597289 -8.279496
        CHANNELS 3 Zrotation Xrotation Yrotation
        JOINT ElbowLeft
        {
          OFFSET -2.706234 -20.706569 -3.195960
          CHANNELS 3 Zrotation Xrotation Yrotation
          JOINT WristLeft
          {
            OFFSET 3.680504 -20.101878 -5.468185
            CHANNELS 3 Zrotation Xrotation Yrotation
            JOINT HandLeft
            {
              OFFSET 1.848367 -5.501597 -0.582778
              CHANNELS 3 Zrotation Xrotation Yrotation
              JOINT HandTipLeft
              {
                OFFSET 2.199912 -5.551912 -2.079069
                CHANNELS 3 Zrotation Xrotation Yrotation
                End Site
                {
                  OFFSET 0 0 0
                }
              }
              JOINT ThumbLeft
              {
                OFFSET 2.207171 -0.191748 -0.311824
                CHANNELS 3 Zrotation Xrotation Yrotation
                End Site
                {
                  OFFSET 0 0 0
                }
              }
            }
          }
        }
      }
      JOINT ShoulderRight
      {
        OFFSET 11.702446 -3.070973 3.439110
        CHANNELS 3 Zrotation Xrotation Yrotation
        JOINT ElbowRight
        {
          OFFSET 2.071931 -20.649622 1.180856
          CHANNELS 3 Zrotation Xrotation Yrotation
          JOINT WristRight
          {
            OFFSET 3.304474 -20.401309 -3.997156
            CHANNELS 3 Zrotation Xrotation Yrotation
            JOINT HandRight
            {
              OFFSET -0.411909 -9.879510 -0.944389
              CHANNELS 3 Zrotation Xrotation Yrotation
              JOINT HandTipRight
              {
                OFFSET -1.381277 -4.033757 -1.082158
                CHANNELS 3 Zrotation Xrotation Yrotation
                End Site
                {
                  OFFSET 0 0 0
                }
              }
              JOINT ThumbRight
              {
                OFFSET -3.236232 0.837329 -1.507165
                CHANNELS 3 Zrotation Xrotation Yrotation
                End Site
                {
                  OFFSET 0 0 0
                }
              }
            }
          }
        }
      }
    }
  }
  JOINT HipLeft
  {
    OFFSET -5.059702 1.112932 -5.547658
    CHANNELS 3 Zrotation Xrotation Yrotation
    JOINT KneeLeft
    {
      OFFSET -5.357392 -29.704874 -1.300476
      CHANNELS 3 Zrotation Xrotation Yrotation
      JOINT AnkleLeft
      {
        OFFSET -3.158419 -32.383375 5.248178
        CHANNELS 3 Zrotation Xrotation Yrotation
        JOINT FootLeft
        {
          OFFSET 3.311970 -6.510464 -0.887236
          CHANNELS 3 Zrotation Xrotation Yrotation
          End Site
          {
            OFFSET 0 0 0
          }
        }
      }
    }
  }
  JOINT HipRight
  {
    OFFSET 4.702184 0.368458 -0.629370
    CHANNELS 3 Zrotation Xrotation Yrotation
    JOINT KneeRight
    {
      OFFSET -0.178078 -28.608460 2.727924
      CHANNELS 3 Zrotation Xrotation Yrotation
      JOINT AnkleRight
      {
        OFFSET -3.495522 -35.209626 6.025834
        CHANNELS 3 Zrotation Xrotation Yrotation
        JOINT FootRight
        {
          OFFSET 3.829947 -1.909134 -9.730991
          CHANNELS 3 Zrotation Xrotation Yrotation
          End Site
          {
            OFFSET 0 0 0
          }
        }
      }
    }
  }
}
MOTION
Frames: 13
Frame Time: 0.033333
20.421487 71.776238 368.270114 -0.383927 1.358351 -30.023337 -0.121870 -0.039071 30.013801 0.274346 0.090032 0.004212 13.325251 2.169596 -0.857119 0.000000 0.000000 0.000000 30.857553 24.292166 -14.576524 82.488999 13.116725 -9.619062 -10.102699 6.186065 16.897069 -30.502808 16.347926 -23.453245 0.000000 0.000000 0.000000 0.000000 0.000000 0.000000 13.349725 20.040147 0.792905 -172.809648 73.933503 175.729444 10.972776 -7.239051 -17.303850 47.973594 -7.903884 17.341835 0.000000 0.000000 0.000000 0.000000 0.000000 0.000000 2.705790 -2.663271 30.479010 -0.608547 2.305499 -0.376281 0.292207 49.172054 24.531119 0.000000 0.000000 0.000000 1.012187 -0.983904 30.036579 0.124949 -1.166676 0.138259 -1.462306 -0.359391 3.994233 0.000000 0.000000 0.000000
20.421923 71.611907 368.233884 -0.354639 1.456786 -30.103551 -0.087501 -0.059860 30.096133 0.299143 0.090724 0.008576 13.196534 2.108086 -0.849548 0.000000 0.000000 0.000000 30.612090 24.055840 -14.413246 82.549194 12.635152 -9.374570 -7.406662 2.940168 19.518315 -32.282735 19.669770 -23.247439 0.000000 0.000000 0.000000 0.000000 0.000000 0.000000 13.656236 20.430381 0.751805 169.781865 76.598987 -162.671790 4.890907 -3.978839 -25.723822 50.185556 -6.763349 19.897889 0.000000 0.000000 0.000000 0.000000 0.000000 0.000000 2.759665 -2.819307 30.577105 -1.032124 1.642108 -0.370984 0.484724 54.650767 27.162687 0.000000 0.000000 0.000000 1.037624 -1.082326 30.117861 0.112758 -1.161822 0.135566 -1.397685 -0.381426 3.663792 0.000000 0.000000 0.000000
20.420680 71.441120 368.215554 -0.302179 1.506639 -30.442101 -0.088744 -0.041441 30.436886 0.323895 0.083511 0.013418 12.845386 2.011142 -0.829679 0.000000 0.000000 0.000000 29.935306 23.597722 -14.002014 83.673340 11.691539 -9.208938 -9.725112 6.452786 16.741979 -29.374065 14.353753 -23.172072 0.000000 0.000000 0.000000 0.000000 0.000000 0.000000 13.995269 20.643513 0.705007 140.308469 77.258155 -127.900555 -4.864659 1.776462 -39.452733 54.730630 2.718895 21.686551 0.000000 0.000000 0.000000 0.000000 0.000000 0.000000 2.711206 -2.915865 30.921971 -1.132601 1.504809 -0.383548 1.320793 53.322219 25.933207 0.000000 0.000000 0.000000 1.024046 -1.145741 30.456314 0.052558 -1.160374 0.124520 -0.392725 0.749286 0.820668 0.000000 0.000000 0.000000
20.407662 71.389172 368.188556 -0.273159 1.567657 -30.758694 -0.074903 -0.019955 30.755862 0.343515 0.073171 0.017475 12.437286 1.865748 -0.793871 0.000000 0.000000 0.000000 29.737766 23.440985 -13.891405 83.478399 12.375705 -9.974923 -9.985433 10.375127 14.291564 -29.657549 7.558182 -22.537519 0.000000 0.000000 0.000000 0.000000 0.000000 0.000000 14.385864 21.764003 0.630654 121.729417 77.360590 -107.361817 -11.428945 5.783687 -48.054044 54.048506 8.924324 18.201856 0.000000 0.000000 0.000000 0.000000 0.000000 0.000000 2.651538 -2.955813 31.231143 -1.140802 1.257798 -0.370158 4.561542 44.564369 19.488346 0.000000 0.000000 0.000000 1.036647 -1.207340 30.773354 0.004588 -1.148269 0.114636 -0.449471 0.931501 1.766368 0.000000 0.000000 0.000000
20.410474 71.370370 368.171619 -0.216695 1.594169 -30.843619 -0.093371 0.006117 30.842403 0.345613 0.053679 0.019946 12.042102 1.705762 -0.751098 0.000000 0.000000 0.000000 30.665938 23.984555 -14.490055 81.991356 13.200921 -9.711299 -12.230008 14.465652 11.442846 -24.669134 0.803039 -21.633520 0.000000 0.000000 0.000000 0.000000 0.000000 0.000000 14.898454 22.635520 0.536749 112.380817 77.324845 -97.751295 -15.452862 7.169370 -52.334048 49.027759 12.359371 11.672686 0.000000 0.000000 0.000000 0.000000 0.000000 0.000000 2.563126 -2.985360 31.308044 -1.141023 1.083123 -0.358557 5.258346 41.823015 17.755188 0.000000 0.000000 0.000000 1.003554 -1.257522 30.857647 -0.055808 -1.128352 0.101747 -2.328860 -2.653784 5.599217 0.000000 0.000000 0.000000
20.425195 71.408024 368.172794 -0.150675 1.609794 -30.813887 -0.138431 0.033219 30.813331 0.328878 0.031911 0.020147 11.721118 1.400866 -0.662473 0.000000 0.000000 0.000000 31.623573 24.522954 -15.094512 81.329283 13.208935 -8.851921 -19.840845 18.049559 8.543510 -18.222900 -5.725957 -18.683825 0.000000 0.000000 0.000000 0.000000 0.000000 0.000000 15.577853 23.034021 0.436521 111.532207 78.390535 -98.737317 -16.469842 6.298943 -52.863042 47.015437 16.653502 8.399195 0.000000 0.000000 0.000000 0.000000 0.000000 0.000000 2.415096 -2.982217 31.259565 -1.051337 0.915405 -0.335411 5.435540 41.663518 17.516539 0.000000 0.000000 0.000000 0.954203 -1.305292 30.826874 -0.112815 -1.094899 0.088164 -2.778582 -3.642062 6.860346 0.000000 0.000000 0.000000
20.435973 71.462196 368.170092 -0.079865 1.615491 -30.809053 -0.172308 0.074080 30.810078 0.309405 0.005189 0.020938 11.248815 1.029738 -0.556820 0.000000 0.000000 0.000000 32.404366 24.771415 -15.528255 80.882330 12.613894 -7.811046 -23.690362 17.424463 8.580922 -17.434918 -1.417304 -19.034386 0.000000 0.000000 0.000000 0.000000 0.000000 0.000000 16.598127 23.711739 0.264505 117.098292 80.650031 -108.140128 -14.007088 4.622726 -50.422734 55.069352 18.795540 15.271103 0.000000 0.000000 0.000000 0.000000 0.000000 0.000000 2.335830 -3.016974 31.251209 -0.901949 0.893099 -0.314949 4.678977 44.258741 19.059372 0.000000 0.000000 0.000000 0.896187 -1.346545 30.820711 -0.136061 -1.125050 0.086918 -5.008803 -9.044108 11.670214 0.000000 0.000000 0.000000
20.447684 71.391582 368.164160 -0.029856 1.612114 -30.833231 -0.202071 0.085400 30.834505 0.278117 -0.023727 0.019177 10.866533 0.649794 -0.443087 0.000000 0.000000 0.000000 32.502425 24.880962 -15.614249 81.295895 11.608621 -6.749177 -24.392832 13.520538 10.518569 -19.187594 0.583580 -18.900872 0.000000 0.000000 0.000000 0.000000 0.000000 0.000000 17.602749 24.173934 0.094981 108.634867 77.611811 -97.054610 -15.793589 5.522832 -52.588570 58.434669 17.417102 18.964322 0.000000 0.000000 0.000000 0.000000 0.000000 0.000000 2.301209 -3.077027 31.283011 -0.653295 0.954539 -0.292718 0.586349 52.929087 25.763665 0.000000 0.000000 0.000000 0.852076 -1.368907 30.843830 -0.148881 -1.137012 0.085770 -6.431410 -13.319798 15.237939 0.000000 0.000000 0.000000
20.464144 71.262571 368.160734 0.003662 1.580892 -30.672935 -0.244407 0.068854 30.672529 0.237586 -0.060201 0.014649 10.702850 0.396887 -0.357446 0.000000 0.000000 0.000000 32.215261 25.021865 -15.538534 81.847583 10.303320 -5.414200 -23.788885 11.970999 11.467487 -22.316365 7.448820 -19.939214 0.000000 0.000000 0.000000 0.000000 0.000000 0.000000 18.490585 24.099828 -0.032181 115.823783 80.295325 -108.629668 -10.095003 4.914345 -46.932221 62.609693 13.274520 26.235494 0.000000 0.000000 0.000000 0.000000 0.000000 0.000000 2.251710 -3.094656 31.125638 -0.588531 1.007150 -0.292141 -1.988287 57.664208 30.089334 0.000000 0.000000 0.000000 0.803473 -1.361539 30.682431 -0.138149 -1.197773 0.093650 -7.091764 -15.526244 17.114785 0.000000 0.000000 0.000000
20.478039 71.119779 368.160240 0.015706 1.535974 -30.110001 -0.273930 0.035103 30.107320 0.207144 -0.101430 0.010130 10.733332 0.254788 -0.298374 0.000000 0.000000 0.000000 31.617626 25.092437 -15.306993 82.321429 9.127481 -4.338240 -24.418771 13.650631 10.714454 -24.929489 4.001284 -18.835148 0.000000 0.000000 0.000000 0.000000 0.000000 0.000000 19.058694 23.724254 -0.100245 165.480730 84.755392 -167.251006 -2.350211 4.654685 -38.201248 65.387675 15.624240 29.905779 0.000000 0.000000 0.000000 0.000000 0.000000 0.000000 2.158006 -3.027396 30.547199 -0.539524 0.970906 -0.276608 3.372884 48.976428 21.912242 0.000000 0.000000 0.000000 0.757088 -1.336557 30.118621 -0.148480 -1.216173 0.093574 -6.258388 -12.868005 13.734704 0.000000 0.000000 0.000000
20.502488 70.986717 368.176814 0.018674 1.470261 -28.982570 -0.307521 0.013389 28.977513 0.184788 -0.146610 0.005990 10.574060 0.152154 -0.250740 0.000000 0.000000 0.000000 31.496824 25.234541 -15.299511 81.615042 8.821217 -3.861559 -26.328472 20.673446 7.395002 -25.069073 -8.892851 -17.274973 0.000000 0.000000 0.000000 0.000000 0.000000 0.000000 18.912354 23.804292 -0.101323 -120.504448 80.306055 108.220254 20.583985 13.201887 -9.302464 56.070559 -2.492478 31.358486 0.000000 0.000000 0.000000 0.000000 0.000000 0.000000 1.888044 -2.845922 29.369792 -0.420599 0.710630 -0.231085 5.836707 45.907873 18.912566 0.000000 0.000000 0.000000 0.696187 -1.295153 28.990199 -0.144618 -1.254681 0.098037 -5.610197 -10.821878 12.360622 0.000000 0.000000 0.000000
20.523655 70.859881 368.191015 0.010980 1.404172 -28.048819 -0.315922 -0.023119 28.041812 0.176320 -0.196622 0.003311 10.148837 0.103510 -0.218857 0.000000 0.000000 0.000000 31.381272 25.485098 -15.350877 79.223901 11.546616 -5.940756 -24.320684 25.200808 5.097059 -25.336770 -15.981438 -17.382619 0.000000 0.000000 0.000000 0.000000 0.000000 0.000000 18.303418 24.319441 -0.074016 -101.921466 71.600479 79.809990 34.847754 25.260000 10.109586 44.317259 -15.921936 20.696851 0.000000 0.000000 0.000000 0.000000 0.000000 0.000000 1.596175 -2.685466 28.391176 -0.236980 0.473830 -0.191564 7.872938 46.273511 17.837203 0.000000 0.000000 0.000000 0.650686 -1.244385 28.055751 -0.144237 -1.316769 0.104171 -5.976652 -11.964226 12.650428 0.000000 0.000000 0.000000
20.541123 70.891819 368.224227 0.007003 1.305295 -27.453270 -0.324085 -0.055667 27.444565 0.178291 -0.245999 0.001874 9.394692 0.199182 -0.226932 0.000000 0.000000 0.000000 30.878234 25.564296 -15.184444 78.702417 12.634776 -6.945599 -23.964879 35.164502 0.150797 -17.106185 -24.589361 -14.131976 0.000000 0.000000 0.000000 0.000000 0.000000 0.000000 17.296314 25.259641 -0.010677 -94.040241 60.707818 60.807301 37.071726 37.052092 14.433948 33.467140 -15.642611 2.765201 0.000000 0.000000 0.000000 0.000000 0.000000 0.000000 1.291030 -2.465475 27.747224 -0.059974 0.231878 -0.151222 9.386712 37.877734 13.403939 0.000000 0.000000 0.000000 0.595640 -1.161510 27.459228 -0.141975 -1.356927 0.108506 -4.144480 -7.129181 8.164491 0.000000 0.000000 0.000000
